# xmcd CD database file
#
# Track frame offsets:
#	183
#	14850
#	30605
#	44725
#	59775
#	74303
#	96673
#	108668
#	122153
#	132155
#	149603
#	162015
#	176230
#	189315
#	200138
#
# Disc length: 2838 seconds
#
# Revision: 0
# Processed by: cddbd v1.4PL0 Copyright (c) Steve Scherf et al.
# Submitted via: CDex 1.40Beta8
#
DISCID=f70b140f
DTITLE=Various Artist - Louisiane
DYEAR=1995
DGENRE=Country
TTITLE0=Co Co Colinda
TTITLE1=Rosa Congo
TTITLE2=Evangeline
TTITLE3=Jolie Brune
TTITLE4=La Pointe aux Pins
TTITLE5=La complainte de la nouvelle acadie
TTITLE6=La quadrille a Cocodrille
TTITLE7=A temps Boudard
TTITLE8=Cousine Lilli
TTITLE9=Raining in New Orleans
TTITLE10=Dodo de Dichédo
TTITLE11=New Orleans, New Orleans
TTITLE12=Grand Buci
TTITLE13=Tit Jean Domingue
TTITLE14=The têche Steamboat blues
EXTD=YEAR: 1995 ID3G: 2
EXTT0=
EXTT1=
EXTT2=
EXTT3=
EXTT4=
EXTT5=
EXTT6=
EXTT7=
EXTT8=
EXTT9=
EXTT10=
EXTT11=
EXTT12=
EXTT13=
EXTT14=
PLAYORDER=
